<?xml version="1.0" standalone="no"?>
<!DOCTYPE svg PUBLIC "-//W3C//DTD SVG 20010904//EN"
 "http://www.w3.org/TR/2001/REC-SVG-20010904/DTD/svg10.dtd">
<svg version="1.0" xmlns="http://www.w3.org/2000/svg"
 width="512.000000pt" height="512.000000pt" viewBox="0 0 512.000000 512.000000"
 preserveAspectRatio="xMidYMid meet">
<metadata>
Created by potrace 1.11, written by Peter Selinger 2001-2013
</metadata>
<g transform="translate(0.000000,512.000000) scale(0.100000,-0.100000)"
fill="#000000" stroke="none">
<path d="M3331 4889 c-51 -27 -99 -49 -106 -49 -7 0 -15 -3 -17 -7 -4 -10 -94
-56 -104 -53 -4 1 -10 -2 -13 -7 -8 -11 -334 -173 -349 -173 -7 0 -12 -3 -12
-7 0 -9 -48 -33 -66 -33 -7 0 -14 -4 -16 -8 -3 -9 -92 -52 -107 -52 -5 0 -11
-4 -13 -8 -4 -10 -140 -77 -150 -74 -5 1 -8 -3 -8 -8 0 -6 -9 -10 -20 -10 -11
0 -20 -3 -20 -7 0 -5 -30 -21 -65 -38 -57 -26 -63 -32 -48 -42 9 -7 25 -13 34
-13 10 0 19 -3 21 -7 4 -11 128 -73 144 -73 7 0 14 -3 16 -8 4 -10 289 -152
305 -152 6 0 13 -3 15 -8 4 -10 209 -112 225 -112 6 0 13 -4 15 -8 4 -10 249
-132 262 -131 5 0 12 -3 15 -8 3 -4 41 -25 83 -46 l78 -39 97 48 c54 27 100
52 101 56 2 4 9 8 15 8 16 0 301 142 305 152 2 4 9 8 16 8 7 0 129 59 271 130
143 72 264 130 271 130 7 0 14 4 16 8 2 4 29 20 60 36 32 15 60 31 63 36 3 5
-21 21 -52 36 -32 16 -59 32 -61 36 -2 4 -10 8 -17 8 -12 0 -94 39 -105 50 -3
3 -12 6 -20 8 -8 2 -16 8 -18 13 -2 5 -10 9 -17 9 -16 0 -99 42 -103 53 -2 4
-10 7 -18 7 -17 0 -97 41 -102 53 -2 4 -9 7 -15 7 -16 0 -221 102 -225 112 -2
5 -10 8 -17 8 -12 0 -94 39 -105 50 -3 3 -12 6 -20 8 -8 2 -16 8 -18 13 -2 5
-10 9 -17 9 -16 0 -99 42 -103 53 -2 4 -10 7 -17 7 -13 0 -133 58 -145 70 -12
12 -30 5 -119 -41z"/>
<path d="M2150 4067 l0 -194 138 -69 c75 -38 139 -72 140 -76 2 -5 9 -8 15 -8
15 0 301 -143 305 -152 2 -5 9 -8 16 -8 14 0 137 -60 146 -71 3 -3 17 -9 32
-12 15 -4 33 -14 42 -22 8 -8 19 -15 25 -15 14 0 13 43 15 -709 l1 -653 -27
-19 c-14 -10 -33 -19 -41 -19 -9 0 -17 -3 -19 -8 -4 -10 -290 -152 -305 -152
-7 0 -13 -4 -13 -10 0 -5 -5 -10 -10 -10 -6 0 -22 -7 -35 -16 l-24 -16 19 -39
c11 -21 17 -39 14 -39 -4 0 0 -8 9 -17 8 -10 15 -20 15 -23 -1 -5 6 -22 70
-160 21 -47 42 -94 46 -106 4 -13 29 -31 64 -47 31 -15 68 -33 82 -41 14 -8
88 -46 165 -84 77 -38 149 -74 160 -80 56 -31 189 -91 193 -87 7 7 6 2521 -1
2533 -7 10 -108 62 -121 62 -4 0 -14 7 -23 15 -8 8 -19 13 -24 10 -5 -4 -9 -1
-9 4 0 6 -9 11 -20 11 -11 0 -20 3 -20 8 0 8 -48 32 -66 32 -7 0 -14 4 -16 8
-3 9 -92 52 -107 52 -5 0 -11 3 -13 8 -4 9 -330 172 -345 172 -6 0 -13 3 -15
8 -4 10 -210 112 -225 112 -7 0 -13 3 -13 8 0 8 -48 32 -66 32 -7 0 -14 4 -16
8 -3 9 -93 52 -108 52 -5 0 -10 5 -10 10 0 6 -4 10 -10 10 -6 0 -10 -71 -10
-193z"/>
<path d="M4535 4176 c-88 -44 -161 -84 -163 -88 -2 -5 -9 -8 -15 -8 -16 0
-461 -223 -465 -232 -2 -5 -15 -8 -28 -8 -13 0 -24 -4 -24 -10 0 -5 -6 -10
-14 -10 -8 0 -16 -4 -18 -9 -1 -5 -12 -11 -23 -13 -11 -1 -22 -6 -25 -9 -9
-10 -225 -114 -232 -111 -5 1 -8 -3 -8 -8 0 -6 -5 -10 -11 -10 -6 0 -17 -7
-25 -15 -12 -12 -15 -69 -15 -352 0 -186 0 -351 0 -366 l1 -28 28 19 c15 10
43 25 62 32 19 8 57 27 83 42 26 15 54 28 62 28 8 0 15 3 15 8 0 4 27 18 60
32 33 14 60 28 60 33 0 4 9 7 20 7 11 0 20 4 20 8 0 4 17 14 38 21 20 8 48 21
62 30 14 9 50 28 80 41 30 14 57 28 58 33 2 4 9 7 16 7 6 0 54 23 106 50 52
28 100 50 107 50 7 0 13 4 13 8 0 5 18 15 40 22 22 7 45 19 51 27 6 7 15 10
20 7 5 -3 9 0 9 5 0 6 9 11 20 11 11 0 20 5 20 10 0 6 9 10 20 10 11 0 20 4
20 8 0 5 18 15 40 22 22 7 40 16 40 20 0 3 15 12 34 18 l35 13 -3 365 c-2 201
-5 366 -7 368 -2 1 -76 -34 -164 -78z"/>
<path d="M1053 3717 c-332 -166 -603 -305 -603 -310 0 -4 4 -6 9 -3 5 4 11 2
13 -3 1 -5 10 -11 18 -13 8 -2 17 -6 20 -9 8 -10 290 -148 290 -143 0 3 7 -2
16 -10 8 -9 20 -14 25 -11 5 4 9 2 9 -3 0 -9 42 -28 64 -30 5 0 12 -4 15 -10
8 -12 311 -162 311 -154 0 4 4 2 8 -4 4 -6 101 -57 215 -114 l208 -103 307
153 c169 85 310 158 314 164 4 6 8 8 8 4 0 -5 39 12 87 37 47 25 92 45 99 45
7 0 14 3 16 8 2 4 90 50 195 102 106 52 193 97 193 100 0 8 -1207 610 -1222
609 -7 0 -284 -136 -615 -302z"/>
<path d="M2913 3331 c-17 -11 -34 -17 -37 -14 -3 4 -6 1 -6 -5 0 -7 -7 -12
-15 -12 -8 0 -15 -4 -15 -10 0 -5 -3 -9 -7 -8 -13 4 -73 -24 -73 -33 0 -5 -3
-8 -7 -7 -14 5 -73 -24 -73 -35 0 -6 -3 -8 -6 -4 -7 7 -146 -61 -156 -77 -4
-6 -8 -8 -8 -3 0 7 -220 -99 -230 -112 -3 -3 -14 -8 -25 -9 -11 -2 -21 -8 -23
-13 -2 -5 -10 -9 -18 -9 -8 0 -14 -5 -14 -10 0 -6 -3 -9 -7 -8 -14 5 -73 -24
-73 -35 0 -6 -3 -8 -6 -4 -8 7 -126 -51 -136 -67 -4 -6 -8 -7 -8 -3 0 5 -44
-15 -97 -42 -53 -28 -102 -51 -110 -51 -7 0 -13 -4 -13 -9 0 -5 -9 -11 -20
-14 -20 -5 -20 -14 -20 -621 l0 -615 343 170 c188 93 349 173 357 178 8 5 133
68 277 140 l263 131 -1 615 c0 338 -1 615 -2 615 -1 0 -16 -9 -34 -19z"/>
<path d="M391 2072 l0 -1268 615 -307 c337 -169 616 -307 619 -307 3 0 5 571
5 1270 l0 1269 -257 129 c-142 70 -269 135 -283 142 -14 8 -27 15 -30 15 -3 0
-151 74 -329 163 -178 89 -327 162 -332 162 -4 0 -8 -571 -8 -1268z"/>
<path d="M4321 3244 c-24 -13 -49 -24 -57 -24 -8 0 -14 -4 -14 -8 0 -5 -18
-15 -40 -22 -22 -7 -40 -17 -40 -22 0 -4 -9 -8 -20 -8 -11 0 -20 -4 -20 -8 0
-4 -17 -14 -37 -21 -21 -8 -40 -17 -43 -20 -9 -10 -94 -51 -107 -51 -7 0 -13
-4 -13 -10 0 -5 -9 -10 -19 -10 -11 0 -21 -3 -23 -7 -4 -10 -130 -73 -145 -73
-6 0 -13 -3 -15 -7 -4 -10 -172 -93 -187 -93 -6 0 -11 -3 -11 -8 0 -4 -13 -13
-30 -20 -24 -11 -30 -20 -31 -45 -4 -173 0 -860 5 -865 4 -3 10 -2 14 4 4 6
24 17 45 25 20 7 37 17 37 21 0 4 9 8 19 8 11 0 21 3 23 8 2 4 46 27 98 52 52
25 97 48 100 51 3 3 22 12 43 20 20 7 37 17 37 21 0 4 9 8 19 8 11 0 21 3 23
8 2 4 46 27 98 52 52 25 97 48 98 53 2 4 12 7 22 7 10 0 20 3 22 8 2 4 28 18
58 32 30 14 57 27 60 30 3 3 24 14 48 24 l42 19 0 443 c0 244 -4 445 -8 448
-5 3 -27 -6 -51 -20z"/>
<path d="M4678 2442 c-10 -2 -18 -7 -18 -11 0 -4 -17 -13 -37 -20 -21 -8 -40
-17 -43 -20 -9 -11 -132 -71 -146 -71 -7 0 -14 -3 -16 -8 -4 -10 -250 -132
-266 -132 -7 0 -12 -3 -12 -7 0 -9 -49 -33 -67 -33 -7 0 -13 -4 -13 -10 0 -5
-9 -10 -20 -10 -11 0 -20 -3 -20 -7 0 -9 -48 -33 -66 -33 -7 0 -14 -3 -16 -7
-4 -11 -87 -53 -104 -53 -8 0 -14 -3 -14 -7 0 -9 -49 -33 -67 -33 -7 0 -13 -4
-13 -10 0 -5 -9 -10 -20 -10 -11 0 -20 -3 -20 -7 0 -9 -49 -33 -67 -33 -7 0
-13 -4 -13 -10 0 -5 -9 -10 -20 -10 -11 0 -20 -4 -20 -10 0 -5 -9 -10 -20 -10
-11 0 -20 -4 -20 -8 0 -4 -16 -14 -35 -21 l-35 -12 -1 -87 c0 -48 -1 -214 -2
-368 -1 -184 1 -281 8 -279 28 5 95 38 95 46 0 5 11 9 25 9 14 0 25 5 25 10 0
6 7 10 15 10 8 0 15 5 15 10 0 6 5 10 12 10 17 0 222 101 226 112 2 4 15 8 28
8 13 0 24 5 24 10 0 6 7 10 15 10 8 0 15 5 15 10 0 6 6 10 14 10 7 0 48 18 91
40 43 22 84 40 91 40 7 0 14 3 16 8 4 10 210 112 226 112 6 0 12 4 12 8 0 8
130 72 147 72 6 0 13 3 15 8 2 4 30 21 63 37 l60 31 0 358 c0 197 -2 361 -5
365 -3 4 -13 5 -22 3z"/>
<path d="M2380 1749 c-52 -26 -100 -52 -107 -58 -7 -6 -16 -11 -20 -11 -13 0
-437 -213 -444 -223 -3 -5 -9 -8 -13 -7 -3 0 -13 -3 -21 -7 -10 -6 23 -26 108
-68 67 -32 125 -63 128 -68 3 -5 8 -8 10 -6 2 1 199 -95 438 -215 238 -119
435 -215 437 -214 3 4 -48 120 -108 248 -22 47 -47 102 -55 123 -8 20 -19 37
-25 37 -5 0 -7 4 -4 9 3 4 -7 35 -23 67 -15 33 -36 77 -46 99 -10 22 -34 76
-55 120 -20 44 -50 109 -65 145 -16 36 -31 67 -34 71 -3 3 -49 -16 -101 -42z"/>
</g>
</svg>
