<svg id="Layer_1" width="200px" height="200px" data-name="Layer 1" xmlns="http://www.w3.org/2000/svg" viewBox="0 0 200 200"><defs><style>.cls-1{fill:#bababa;}.cls-2{fill:#919191;}.cls-3{fill:#d07400;}.cls-4{fill:#eaeaea;}.cls-5{fill:#f70808;}.cls-5,.cls-6,.cls-9{opacity:0.45;isolation:isolate;}.cls-6{fill:#ff9d00;}.cls-7{fill:#ced346;}.cls-8{fill:#749f55;}.cls-9{fill:#02ba1c;}.cls-10{fill:#565656;}</style></defs><title>shelf</title><g id="Gruppe_107" data-name="Gruppe 107"><path id="Pfad_255" data-name="Pfad 255" class="cls-1" d="M284.76,229.39l.17,60.33,38.82,22.56L376.25,282l-.17-60.33-38.82-22.56Z" transform="translate(-260.11 -171.04)"/><path id="Pfad_256" data-name="Pfad 256" class="cls-2" d="M373.15,228.73l-38.9-18.5,2.09-19.29,36.73,7.5Z" transform="translate(-260.11 -171.04)"/><path id="Pfad_257" data-name="Pfad 257" class="cls-2" d="M373.14,252.06,334.32,229.5l-.07-24.57,38.82,22.56Z" transform="translate(-260.11 -171.04)"/><path id="Pfad_258" data-name="Pfad 258" class="cls-3" d="M260.11,215.66l.17,60.33,38.82,22.56,52.5-30.31-.17-60.33-38.82-22.56Z" transform="translate(-260.11 -171.04)"/><path id="Pfad_259" data-name="Pfad 259" class="cls-1" d="M260.11,243.66l.17,60.33,38.79,22.56,52.47-30.32-.18-60.33-38.79-22.56Z" transform="translate(-260.11 -171.04)"/><path id="Pfad_260" data-name="Pfad 260" class="cls-4" d="M327,278.73l-38.82-22.56,21.39-12.35,38.82,22.56Z" transform="translate(-260.11 -171.04)"/><path id="Pfad_261" data-name="Pfad 261" class="cls-4" d="M351.75,264.35l-38.82-22.56,21.39-12.35L373.14,252Z" transform="translate(-260.11 -171.04)"/><path id="Pfad_262" data-name="Pfad 262" class="cls-4" d="M351.75,250.43l-38.82-22.56,21.39-12.35,38.82,22.56Z" transform="translate(-260.11 -171.04)"/><path id="Pfad_263" data-name="Pfad 263" class="cls-4" d="M351.75,236l-38.82-22.56,21.39-12.35,38.82,22.56Z" transform="translate(-260.11 -171.04)"/><path id="Pfad_264" data-name="Pfad 264" class="cls-4" d="M351.75,221.82l-38.82-22.56,21.39-12.35,38.82,22.56Z" transform="translate(-260.11 -171.04)"/><path id="Pfad_265" data-name="Pfad 265" class="cls-2" d="M348.35,266.38l-38.82-22.56-.07-24.58,38.82,22.56Z" transform="translate(-260.11 -171.04)"/><path id="Pfad_266" data-name="Pfad 266" class="cls-4" d="M302.33,293l-38.82-22.56L284.9,258l38.82,22.56Z" transform="translate(-260.11 -171.04)"/><path id="Pfad_267" data-name="Pfad 267" class="cls-2" d="M323.72,280.6,284.9,258l-.07-24.57L323.65,256Z" transform="translate(-260.11 -171.04)"/><path id="Pfad_268" data-name="Pfad 268" class="cls-4" d="M326.88,250.43l-38.82-22.56,21.39-12.35,38.82,22.56Z" transform="translate(-260.11 -171.04)"/><path id="Pfad_269" data-name="Pfad 269" class="cls-2" d="M348.27,238.08l-38.82-22.56-.07-24.58L348.2,213.5Z" transform="translate(-260.11 -171.04)"/><path id="Pfad_270" data-name="Pfad 270" class="cls-4" d="M302.25,264.65l-38.82-22.56,21.39-12.35,38.82,22.56Z" transform="translate(-260.11 -171.04)"/><path id="Pfad_271" data-name="Pfad 271" class="cls-2" d="M323.64,252.3l-38.82-22.56-.07-24.58,38.82,22.56Z" transform="translate(-260.11 -171.04)"/><path id="Pfad_272" data-name="Pfad 272" class="cls-4" d="M298.93,238.22l-38.82-22.56,52.5-30.31,38.82,22.56Z" transform="translate(-260.11 -171.04)"/><path id="Pfad_273" data-name="Pfad 273" class="cls-4" d="M323.57,223.91l-38.82-22.56L337.25,171l38.82,22.56Z" transform="translate(-260.11 -171.04)"/><path id="Pfad_274" data-name="Pfad 274" class="cls-1" d="M351.6,268.24l-52.5,30.31-.17-60.33,52.5-30.32ZM302.33,293l21.39-12.35L323.65,256l-21.39,12.34.07,24.58m-.08-28.3,21.39-12.35-.07-24.57-21.39,12.34.07,24.58m24.63-14.22,21.39-12.35-.07-24.58-21.39,12.35.07,24.58m.08,28.3,21.39-12.35-.07-24.58-21.39,12.35.07,24.58" transform="translate(-260.11 -171.04)"/><path id="Pfad_275" data-name="Pfad 275" class="cls-5" d="M348.16,213.57l-21.39,12.35.07,24.58,21.39-12.35Z" transform="translate(-260.11 -171.04)"/><path id="Pfad_276" data-name="Pfad 276" class="cls-5" d="M326.85,254.22l.07,24.58,21.39-12.35-.07-24.57Z" transform="translate(-260.11 -171.04)"/><path id="Pfad_277" data-name="Pfad 277" class="cls-2" d="M299.1,327l-38.82-22.56-.17-88.78,38.82,22.56Z" transform="translate(-260.11 -171.04)"/><path id="Pfad_278" data-name="Pfad 278" class="cls-1" d="M348.37,209.61l0,14.13,0,0,.17,60.33,27.69-16V193.51ZM373.1,252l-21.33,12.33,0-10.45,21.33-12.32Zm0-14.17-21.33,12.32,0-10.4L373,227.44ZM351.69,236l0-10.44L373,213.27l0,10.45Zm21.45,30.11L351.77,278.5l0-10.4,21.37-12.35Zm-21.49-44.28,0-10.4L373,199.11l0,10.4Z" transform="translate(-260.11 -171.04)"/><path id="Pfad_279" data-name="Pfad 279" class="cls-6" d="M351.83,264.35,373.16,252l0-10.44L351.8,253.9Z" transform="translate(-260.11 -171.04)"/><path id="Pfad_280" data-name="Pfad 280" class="cls-6" d="M351.72,225.6l0,10.44,21.33-12.32,0-10.45Z" transform="translate(-260.11 -171.04)"/><path id="Pfad_281" data-name="Pfad 281" class="cls-6" d="M351.79,250.17l21.33-12.32,0-10.41-21.33,12.33Z" transform="translate(-260.11 -171.04)"/><path id="Pfad_282" data-name="Pfad 282" class="cls-6" d="M373.08,209.52l0-10.4-21.37,12.35,0,10.41Z" transform="translate(-260.11 -171.04)"/><g id="Gruppe_106" data-name="Gruppe 106"><path id="Pfad_1" data-name="Pfad 1" class="cls-7" d="M313.7,177.94l5.73,2.86,5.86,2.93,11.59-5.8-11.59-5.8Z" transform="translate(-260.11 -171.04)"/><path id="Pfad_7" data-name="Pfad 7" class="cls-8" d="M296.76,211l11.67,5.84V192.9l-10.6-5.3-1.08-.54Z" transform="translate(-260.11 -171.04)"/><path id="Pfad_30" data-name="Pfad 30" class="cls-7" d="M325.64,191.29l5-2.5,6.67-3.33,0-6.94-11.64,5.82Z" transform="translate(-260.11 -171.04)"/><path id="Pfad_31" data-name="Pfad 31" class="cls-7" d="M334.22,196.25v-8.48l-8.58,4.29v8.48Z" transform="translate(-260.11 -171.04)"/><path id="Pfad_32" data-name="Pfad 32" class="cls-8" d="M308.77,192.3l11.59-5.8-11.59-5.8-11.59,5.8,6.6,3.3Z" transform="translate(-260.11 -171.04)"/><path id="Pfad_33" data-name="Pfad 33" class="cls-8" d="M320.79,198.65V187.06l-11.68,5.84v11.59l9.39-4.69h0Z" transform="translate(-260.11 -171.04)"/><path id="Pfad_34" data-name="Pfad 34" class="cls-8" d="M316.38,201.63l-6.84,3.42,10.88,5.44Z" transform="translate(-260.11 -171.04)"/><path id="Pfad_35" data-name="Pfad 35" class="cls-7" d="M330.63,198.81l-5,2.5v7l11.67-5.83,0-6.94-2.37,1.18Z" transform="translate(-260.11 -171.04)"/><path id="Pfad_36" data-name="Pfad 36" class="cls-7" d="M319.16,181.44l-5.88-2.94v3.7l8,4a.34.34,0,0,1,.17.22.36.36,0,0,1,.06.2v12.23a.41.41,0,0,1-.23.36L317,201.32l1.77,3.87,6.19,3.1v-24Z" transform="translate(-260.11 -171.04)"/></g><path id="Pfad_283" data-name="Pfad 283" class="cls-9" d="M323.53,227.65,302.14,240l.07,24.58,21.39-12.35Z" transform="translate(-260.11 -171.04)"/><path id="Pfad_284" data-name="Pfad 284" class="cls-9" d="M302.22,268.31l.07,24.57,21.39-12.35L323.61,256Z" transform="translate(-260.11 -171.04)"/><circle id="Ellipse_45" data-name="Ellipse 45" class="cls-10" cx="61.34" cy="98.73" r="1.03"/><circle id="Ellipse_46" data-name="Ellipse 46" class="cls-10" cx="61.34" cy="71.77" r="1.03"/><circle id="Ellipse_47" data-name="Ellipse 47" class="cls-10" cx="85.79" cy="56.68" r="1.03"/><circle id="Ellipse_48" data-name="Ellipse 48" class="cls-10" cx="85.79" cy="83.96" r="1.03"/><circle id="Ellipse_49" data-name="Ellipse 49" class="cls-10" cx="111.01" cy="76.88" r="1.03"/><circle id="Ellipse_50" data-name="Ellipse 50" class="cls-10" cx="111.01" cy="62.96" r="1.03"/><circle id="Ellipse_51" data-name="Ellipse 51" class="cls-10" cx="111.01" cy="49.05" r="1.03"/><circle id="Ellipse_52" data-name="Ellipse 52" class="cls-10" cx="111.01" cy="34.49" r="1.03"/></g></svg>